<svg width="1024" height="1024" viewBox="0 0 1024 1024" fill="none" xmlns="http://www.w3.org/2000/svg">
<rect x="406.401" y="722.242" width="37.7058" height="624.243" transform="rotate(179.947 406.401 722.242)" fill="#F70202"/>
<rect x="594.931" y="722.066" width="226.235" height="37.7059" transform="rotate(179.947 594.931 722.066)" fill="#F70202"/>
<rect x="594.747" y="525.157" width="301.647" height="37.7059" transform="rotate(179.947 594.747 525.157)" fill="#F70202"/>
<rect x="272.336" y="814.412" width="37.7058" height="624.243" transform="rotate(179.947 272.336 814.412)" fill="#D9D9D9"/>
<rect x="611.47" y="395.457" width="37.7058" height="427.333" fill="#D9D9D9"/>
<rect x="460.865" y="814.236" width="226.235" height="37.7059" transform="rotate(179.947 460.865 814.236)" fill="#D9D9D9"/>
<rect x="460.682" y="617.328" width="301.647" height="37.7059" transform="rotate(179.947 460.682 617.328)" fill="#D9D9D9"/>
<rect x="686.882" y="219.497" width="37.7058" height="502.745" fill="#D9D9D9"/>
<rect x="498.353" y="185.98" width="226.235" height="33.5163" fill="#D9D9D9"/>
<rect x="498.353" y="328.425" width="301.647" height="33.5163" fill="#D9D9D9"/>
<rect x="498.353" y="98" width="301.647" height="29.3268" fill="#D9D9D9"/>
<rect x="611.47" y="785.085" width="188.529" height="37.7059" fill="#D9D9D9"/>
<rect x="456.457" y="395.457" width="192.719" height="37.7059" fill="#D9D9D9"/>
<rect x="527.68" y="571.418" width="121.497" height="37.7059" fill="#D9D9D9"/>
<path d="M297.852 909.636C297.489 905.295 295.716 901.784 292.534 899.102C289.375 896.42 285.284 895.08 280.261 895.08C276.875 895.08 273.864 895.705 271.227 896.955C268.591 898.205 266.523 899.909 265.023 902.068C263.523 904.227 262.773 906.705 262.773 909.5C262.773 911.295 263.114 912.92 263.795 914.375C264.5 915.807 265.489 917.091 266.761 918.227C268.034 919.341 269.545 920.318 271.295 921.159C273.045 922 274.977 922.739 277.091 923.375L284.727 925.625C287.341 926.42 289.75 927.341 291.955 928.386C294.182 929.432 296.114 930.682 297.75 932.136C299.409 933.568 300.693 935.25 301.602 937.182C302.534 939.114 303 941.341 303 943.864C303 947.545 302.045 950.841 300.136 953.75C298.25 956.659 295.557 958.955 292.057 960.636C288.58 962.295 284.477 963.125 279.75 963.125C275.25 963.125 271.33 962.364 267.989 960.841C264.67 959.318 262.045 957.205 260.114 954.5C258.182 951.773 257.091 948.636 256.841 945.091H261.205C261.432 947.977 262.352 950.477 263.966 952.591C265.602 954.682 267.773 956.295 270.477 957.432C273.182 958.568 276.273 959.136 279.75 959.136C283.5 959.136 286.807 958.5 289.67 957.227C292.534 955.932 294.773 954.136 296.386 951.841C298 949.545 298.807 946.875 298.807 943.83C298.807 941.375 298.227 939.273 297.068 937.523C295.909 935.773 294.193 934.261 291.92 932.989C289.67 931.716 286.875 930.58 283.534 929.58L275.386 927.125C269.932 925.466 265.761 923.205 262.875 920.341C260.011 917.477 258.58 913.909 258.58 909.636C258.58 906.045 259.534 902.864 261.443 900.091C263.352 897.295 265.943 895.102 269.216 893.511C272.511 891.92 276.227 891.125 280.364 891.125C284.523 891.125 288.193 891.932 291.375 893.545C294.557 895.136 297.08 897.33 298.943 900.125C300.807 902.898 301.841 906.068 302.045 909.636H297.852ZM456.375 927.091C456.375 934.295 455.125 940.591 452.625 945.977C450.125 951.341 446.648 955.511 442.193 958.489C437.761 961.466 432.648 962.955 426.852 962.955C421.034 962.955 415.898 961.466 411.443 958.489C407.011 955.489 403.545 951.307 401.045 945.943C398.545 940.557 397.295 934.273 397.295 927.091C397.295 919.886 398.545 913.602 401.045 908.239C403.568 902.875 407.045 898.705 411.477 895.727C415.909 892.727 421.034 891.227 426.852 891.227C432.648 891.227 437.761 892.716 442.193 895.693C446.648 898.67 450.125 902.852 452.625 908.239C455.125 913.602 456.375 919.886 456.375 927.091ZM452.216 927.091C452.216 920.614 451.125 915 448.943 910.25C446.784 905.5 443.795 901.83 439.977 899.239C436.159 896.625 431.784 895.318 426.852 895.318C421.92 895.318 417.545 896.614 413.727 899.205C409.909 901.773 406.909 905.443 404.727 910.216C402.568 914.966 401.489 920.591 401.489 927.091C401.489 933.523 402.557 939.125 404.693 943.898C406.852 948.648 409.841 952.33 413.659 954.943C417.477 957.557 421.875 958.864 426.852 958.864C431.784 958.864 436.159 957.568 439.977 954.977C443.795 952.364 446.784 948.682 448.943 943.932C451.125 939.182 452.216 933.568 452.216 927.091ZM554.028 962V892.182H575.54C579.949 892.182 583.744 893.045 586.926 894.773C590.108 896.5 592.551 898.898 594.256 901.966C595.96 905.011 596.812 908.557 596.812 912.602C596.812 916.602 595.96 920.125 594.256 923.17C592.551 926.193 590.108 928.557 586.926 930.261C583.767 931.966 579.983 932.818 575.574 932.818H556.312V928.83H575.472C579.063 928.83 582.131 928.159 584.676 926.818C587.222 925.477 589.176 923.602 590.54 921.193C591.903 918.761 592.585 915.898 592.585 912.602C592.585 909.284 591.903 906.398 590.54 903.943C589.176 901.466 587.21 899.545 584.642 898.182C582.097 896.818 579.028 896.136 575.438 896.136H558.29V962H554.028ZM582.699 930.364L599.881 962H594.972L577.892 930.364H582.699ZM692.148 962H687.648L712.841 892.182H717.75L742.943 962H738.443L715.466 897.67H715.125L692.148 962ZM698.523 935.716H732.068V939.67H698.523V935.716Z" fill="white"/>
</svg>
